<?xml version="1.0" encoding="utf-8" ?>
<svg xmlns="http://www.w3.org/2000/svg" xmlns:xlink="http://www.w3.org/1999/xlink" width="1024" height="1023">
	<path fill="#233340" d="M0 0L1024 0L1024 1024L0 1024L0 429.721L0 425.919L0 0Z"/>
	<path fill="#233340" d="M0 425.919C2.23925 429.863 4.24942 434.087 6.88309 437.777C4.16341 435.327 2.06945 432.738 0 429.721L0 425.919Z"/>
	<path fill="#FEFEFE" d="M680.469 550.034C681.926 549.993 684.031 549.715 685.231 550.619C686.424 560.028 685.501 570.443 685.464 579.963C683.806 580.009 682.261 580.139 680.659 579.616C679.744 569.96 680.437 559.752 680.469 550.034Z"/>
	<path fill="#FEFEFE" d="M331.189 549.861C332.873 549.785 334.851 549.547 336.234 550.602C337.39 560.096 336.399 570.614 336.316 580.216C334.662 580.212 332.741 580.488 331.316 579.536C330.091 571.405 331.136 558.447 331.189 549.861Z"/>
	<path fill="#FEFEFE" d="M534.594 549.614C536.043 549.62 537.84 549.408 539.022 550.254C540.255 558.077 539.325 567.849 539.369 575.882C544.605 575.876 549.879 575.739 555.106 576.087C555.753 577.149 555.493 578.676 555.507 579.92L534.553 579.952L534.594 549.614Z"/>
	<path fill="#FEFEFE" d="M361.169 549.964C365.624 549.908 384.925 548.871 387.666 550.479C388.136 551.787 388.165 552.369 387.853 553.723C386.179 555.111 380.018 554.38 377.599 554.365L377.556 569.616C377.554 572.102 377.847 574.808 377.598 577.267C377.469 578.545 377.247 579.152 376.274 579.966C374.893 579.923 373.923 580.149 372.772 579.325C371.67 571.293 372.501 562.253 372.533 554.107C369.121 554.096 365.466 554.809 362.206 553.705C360.993 552.449 361.268 551.67 361.169 549.964Z"/>
	<path fill="#FEFEFE" d="M629.711 549.736C636.798 549.623 644.288 549.031 651.336 549.604C652.907 549.731 654.579 549.799 655.672 551.064C655.727 552.21 655.926 553.065 655.225 554.043C652.35 554.723 648.606 554.316 645.629 554.301L645.588 569.375C645.588 571.836 645.76 574.326 645.648 576.783C645.587 578.108 645.648 579.05 644.639 579.985C643.217 580.048 642.455 580.314 641.24 579.528C639.075 574.921 640.38 559.932 640.345 554.089C637.042 554.012 633.392 554.975 630.324 553.571C629.408 552.213 629.681 551.347 629.711 549.736Z"/>
	<path fill="#FEFEFE" d="M437.879 549.581C441.572 549.439 445.075 549.637 448.639 550.746C450.035 551.18 450.942 551.591 451.598 552.915L450.917 554.569C447.538 557.003 443.123 553.171 439.166 553.5C437.448 553.643 434.303 555.294 433.401 556.801C433.055 557.38 432.803 557.963 433.043 558.618C434.573 562.81 444.31 563.858 448.069 565.812C450.139 566.888 452.483 568.669 452.995 571.094C453.421 573.108 452.369 575.07 451.122 576.566C448.42 579.809 445.087 580.327 441.07 580.615C439.162 580.595 437.182 580.606 435.304 580.243C432.967 579.791 429.129 579.055 427.772 577C427.753 575.423 428.181 574.935 428.94 573.582C433.607 573.153 435.975 577.913 442.734 576.045C444.469 575.565 446.886 574.702 447.692 572.948C448.005 572.266 447.667 571.773 447.471 571.098C443.559 566.838 436.38 567.659 431.392 564.753C429.786 563.817 428.337 562.506 427.954 560.603C427.556 558.63 428.427 556.412 429.437 554.75C431.442 551.452 434.291 550.499 437.879 549.581Z"/>
	<path fill="#FEFEFE" d="M579.074 549.497C580.691 549.459 582.075 549.395 583.639 549.908C586.085 555.518 582.301 564.996 585.287 571.602C586.192 573.604 588.424 575.313 590.495 575.955C592.59 576.604 594.831 576.34 596.758 575.309C606.203 570.254 599.198 558.261 602.571 550.673C603.108 549.465 603.33 549.289 604.444 548.755C605.074 548.944 605.589 549.192 606.012 549.736C607.125 551.163 606.829 552.555 606.831 554.25C606.918 560.906 608.454 571.399 603.506 576.525C600.768 579.361 596.766 580.622 592.889 580.588C589.092 580.556 585.186 579.27 582.558 576.435C577.165 570.618 579.004 557.111 579.074 549.497Z"/>
	<path fill="#FEFEFE" d="M830.821 549.585C834.145 549.34 837.195 549.477 840.477 550.075C842.215 550.392 843.877 550.479 844.928 551.994C844.772 553.283 844.352 553.895 843.661 554.955C841.014 556.197 837.604 553.44 834.499 553.55C831.809 553.645 829.964 554.137 828.094 556.118C827.779 557.156 827.515 557.747 827.773 558.839C828.673 562.643 839.563 563.767 842.932 565.604C844.692 566.564 846.138 567.932 846.612 569.937C847.084 571.935 846.425 574.646 845.315 576.341C843.444 579.198 840.029 579.823 836.928 580.462C834.071 580.51 831.239 580.548 828.432 579.924C825.737 579.325 824.039 578.809 822.497 576.377C822.395 575.173 822.163 575.302 822.991 574.297C826.525 573.271 831.539 576.867 835.602 576.652C837.746 576.538 839.593 575.338 840.983 573.792C841.308 572.584 841.548 572.215 840.855 571.068C838.885 567.806 831.621 567.389 828.225 566.141C825.586 565.171 823.607 563.367 822.583 560.725C821.886 558.928 821.923 557.048 822.766 555.311C824.422 551.899 827.403 550.649 830.821 549.585Z"/>
	<path fill="#FEFEFE" d="M792.98 549.606C794.592 549.551 796.032 549.547 797.623 549.835C798.804 551.695 798.188 575.407 797.875 579.399C797.005 580.034 795.804 579.998 794.73 579.852C791.621 579.432 778.83 562.757 775.755 559.102L775.6 580.205C773.945 580.222 771.799 580.505 770.331 579.711C769.902 574.777 769.345 553.624 770.614 550.11L772.219 549.598C773.462 549.778 774.337 550.038 775.309 550.875C777.833 553.049 780.031 556.347 782.225 558.909Q787.397 564.873 792.829 570.602L792.98 549.606Z"/>
	<path fill="#FEFEFE" d="M491.192 549.641C494.734 549.408 498.711 550.304 501.705 552.231Q502.328 552.631 502.909 553.091Q503.489 553.551 504.022 554.066Q504.554 554.58 505.032 555.146Q505.511 555.711 505.931 556.32Q506.352 556.93 506.71 557.578Q507.067 558.227 507.359 558.907Q507.651 559.588 507.875 560.294Q508.098 561 508.25 561.725Q508.415 562.512 508.5 563.312Q508.585 564.112 508.588 564.916Q508.591 565.721 508.513 566.521Q508.435 567.322 508.276 568.111Q508.117 568.899 507.879 569.667Q507.64 570.436 507.326 571.176Q507.011 571.916 506.623 572.621Q506.235 573.325 505.777 573.987C502.985 577.981 498.932 579.823 494.257 580.635C490.389 580.678 486.942 580.388 483.473 578.497C479.718 576.449 476.951 572.991 475.947 568.814Q475.764 568.054 475.662 567.278Q475.559 566.503 475.538 565.721Q475.517 564.94 475.577 564.16Q475.637 563.38 475.778 562.611Q475.919 561.842 476.139 561.091Q476.359 560.341 476.656 559.617Q476.953 558.894 477.323 558.205Q477.694 557.516 478.134 556.87C481.279 552.272 485.933 550.523 491.192 549.641Z"/>
	<path fill="#233340" d="M490.212 554.12C492.403 554.099 494.493 554.096 496.576 554.866C499.371 555.9 501.716 558.053 502.834 560.831Q503.039 561.354 503.188 561.896Q503.338 562.438 503.43 562.993Q503.522 563.548 503.556 564.109Q503.59 564.67 503.565 565.232Q503.54 565.793 503.457 566.349Q503.374 566.905 503.234 567.45Q503.093 567.994 502.897 568.521Q502.7 569.048 502.45 569.551C500.719 573.094 497.975 574.811 494.395 576.134C491.761 576.469 489.061 576.345 486.66 575.091Q486.17 574.835 485.71 574.529Q485.249 574.224 484.822 573.873Q484.396 573.522 484.008 573.129Q483.619 572.735 483.274 572.304Q482.928 571.873 482.629 571.408Q482.33 570.944 482.08 570.451Q481.83 569.958 481.632 569.442Q481.434 568.926 481.291 568.392C480.474 565.424 480.792 562.151 482.331 559.467C484.163 556.273 486.761 554.992 490.212 554.12Z"/>
	<path fill="#FEFEFE" d="M724.387 549.56C727.978 549.33 731.208 549.153 734.661 550.446C738.704 551.961 742.018 554.99 743.692 558.993Q743.996 559.724 744.223 560.483Q744.45 561.242 744.598 562.02Q744.747 562.798 744.814 563.587Q744.882 564.376 744.869 565.168Q744.855 565.96 744.761 566.747Q744.666 567.533 744.492 568.305Q744.317 569.078 744.064 569.829Q743.811 570.579 743.483 571.3C741.233 576.128 737.306 578.423 732.504 580.113C728.221 580.774 723.965 580.682 719.986 578.791Q719.304 578.473 718.658 578.089Q718.011 577.704 717.407 577.257Q716.802 576.81 716.245 576.304Q715.688 575.799 715.185 575.24Q714.681 574.681 714.236 574.075Q713.791 573.469 713.409 572.821Q713.027 572.173 712.712 571.49Q712.396 570.807 712.151 570.096Q711.894 569.323 711.715 568.529Q711.537 567.735 711.439 566.926Q711.341 566.118 711.325 565.304Q711.309 564.49 711.375 563.679Q711.441 562.867 711.588 562.066Q711.735 561.265 711.961 560.483Q712.188 559.701 712.492 558.946Q712.797 558.191 713.175 557.47C715.631 552.883 719.628 550.948 724.387 549.56Z"/>
	<path fill="#233340" d="M724.459 554.14C726.683 553.878 728.832 553.577 731.019 554.246Q731.574 554.415 732.109 554.638Q732.644 554.861 733.155 555.135Q733.666 555.409 734.148 555.732Q734.629 556.055 735.077 556.423Q735.525 556.791 735.934 557.202Q736.344 557.612 736.711 558.061Q737.078 558.51 737.4 558.992Q737.721 559.474 737.994 559.986C739.408 562.702 739.718 565.884 738.631 568.772C737.369 572.127 734.909 574.098 731.733 575.533C729.388 575.887 727.024 576.07 724.721 575.389C721.638 574.477 718.96 572.274 717.584 569.358Q717.359 568.887 717.182 568.396Q717.005 567.905 716.877 567.399Q716.749 566.892 716.671 566.376Q716.594 565.86 716.567 565.339Q716.541 564.817 716.565 564.296Q716.59 563.774 716.666 563.258Q716.742 562.742 716.869 562.235Q716.995 561.729 717.171 561.237C718.494 557.599 721.105 555.755 724.459 554.14Z"/>
	<path fill="#FEFEFE" d="M597.319 429.748L601.567 429.785L601.689 521.008L589.125 521.011L582.504 521.014L582.641 429.812L597.319 429.748Z"/>
	<path fill="#FEFEFE" d="M627.033 429.694L645.979 429.755L646.028 504.634L682.962 504.852L682.968 521.469L626.943 521.466L627.033 429.694Z"/>
	<path fill="#FEFEFE" d="M699.212 429.846L718.665 429.809L718.906 504.623C731.317 504.976 743.794 504.717 756.215 504.852Q756.392 513.068 756.176 521.284C737.145 521.713 718.062 521.496 699.024 521.506L699.212 429.846Z"/>
	<path fill="#FEFEFE" d="M483.984 429.702L502.966 429.766C510.853 448.104 519.714 465.927 527.271 484.439C536.182 466.593 543.903 447.908 552.415 429.843L572.348 429.952L559.763 456.638C548.605 478.807 538.874 501.98 526.642 523.567C522.571 516.761 519.561 509.047 516.181 501.863Q505.428 479.414 495.442 456.613C491.729 448.145 486.524 438.449 483.984 429.702Z"/>
	<path fill="#FEFEFE" d="M359.301 428.14Q360.021 428.057 360.743 427.99C373.43 426.837 383.782 431.546 393.369 439.533C389.831 443.834 386.296 448.12 382.577 452.268C376.734 447.15 371.206 442.94 362.986 443.358C359.599 443.531 356.87 445.113 354.682 447.662C353.069 449.541 351.494 452.079 351.931 454.675C353.498 463.962 378.166 467.608 387.135 474.813C392.577 479.184 396.051 484.921 396.693 491.919C397.363 499.226 395.6 505.966 390.74 511.589C384.631 518.657 376.613 521.145 367.623 521.815C365 521.888 362.303 521.842 359.689 521.615C348.863 520.678 339.567 515.263 332.647 506.993C336.674 503.222 341.134 499.675 345.598 496.442C349.243 500.565 353.54 503.492 358.911 504.852C364.895 506.367 370.28 505.61 375.527 502.436C376.884 499.889 378.164 496.86 377.534 493.913C375.553 484.647 351.869 480.289 343.901 474.907C338.599 471.326 335.473 466.282 334.389 459.981C333.173 452.905 334.496 445.399 338.762 439.54C343.741 432.701 351.213 429.462 359.301 428.14Z"/>
	<path fill="#FEFEFE" d="M416.211 429.664L472.86 429.84C472.89 435.114 472.781 440.398 472.733 445.673Q454.135 445.88 435.536 445.858L435.507 466.341Q449.94 466.314 464.373 466.444L464.355 482.037Q449.968 482.025 435.581 482.167L435.581 493.125L435.586 504.541C447.877 504.745 460.201 504.554 472.495 504.536L472.49 521.491L415.982 521.439L416.211 429.664Z"/>
	<path fill="#FEFEFE" d="M804.281 425.351C807.863 429.017 820.992 458.842 824.113 465.421C832.835 483.807 842.083 501.813 850.144 520.534L831.067 520.539L822.103 502.089L805.625 502.171C799.128 502.129 792.61 501.977 786.117 502.217L777.426 520.524L758.777 520.789C767.851 500.445 777.481 480.458 787.183 460.409C792.839 448.72 798.295 436.873 804.281 425.351Z"/>
	<path fill="#233340" d="M804.154 460.244C806.716 462.545 814.967 483.69 817.034 488.451L804.416 488.366L791.572 488.451Q797.941 474.382 804.154 460.244Z"/>
	<path fill="#FE8F3B" d="M196.974 235.91L197.828 234.302C197.696 233.083 197.691 232.039 197.82 230.82C198.39 230.321 199.247 229.695 199.508 228.942C200.913 224.881 197.052 222.418 195.426 219.374C194.847 218.291 194.875 217.268 195.197 216.114C196.91 216.418 197.111 218.526 198.851 219.026C199.334 217.162 198.648 215.444 197.905 213.716C197.494 212.761 197.336 212.417 197.243 211.35C197.977 210.827 198.57 210.309 199.188 209.654C199.231 208.46 199.317 207.292 199.449 206.105L200.298 205.432C200.565 205.581 200.849 205.701 201.098 205.879C203.261 207.42 206.42 216.093 206.39 218.697C206.363 220.998 204.611 222.205 203.222 223.759C201.787 225.364 201.755 227.04 201.851 229.095C203.67 231.311 203.548 232.014 203.401 234.749C208.411 237.873 209.12 242.682 213.162 246.469C213.325 248.906 213.641 249.933 212.295 252.136C210.71 254.729 211.563 265.268 211.568 268.631L215.451 270.422L215.412 285.217C219.479 288.28 224.186 292.383 224.888 297.719C225.565 302.857 223.723 309.237 223.458 314.524C229.274 317.327 242.665 322.112 245.496 327.671L245.208 328.336C241.786 329.407 239.182 327.437 236.201 326.036C235.92 328.761 235.526 331.524 235.459 334.262C237.426 334.929 239.735 336.021 241.823 335.862C242.252 335.162 242.592 334.46 242.928 333.712C244.289 333.034 244.497 333.073 246.024 333.237C247.056 334.825 246.868 342.255 246.466 344.384C246.364 344.924 246.249 345.078 246.018 345.508C245.144 345.799 244.292 346.034 243.392 346.231C242.215 350.534 243.183 387.673 243.309 394.269C248.848 397.401 245.93 400.181 252.007 403.836C252.006 406.488 251.966 409.129 252.276 411.767C253.013 412.343 253.476 412.585 254.32 412.936C255.107 414.53 254.65 417.573 254.04 419.224C253.785 419.914 253.383 420.457 253.011 421.083C252.582 421.804 252.255 422.41 252.149 423.255C251.239 430.507 252.008 441.491 251.996 449.142L251.916 506.961L277.315 516.438C277.213 510.098 275.46 498.069 279.984 493.158C280.938 492.123 281.309 492.017 282.619 491.731C284.444 492.336 285.642 493.503 286.55 495.185C289.521 500.683 285.929 517.678 287.764 520.191C288.26 520.87 289.348 521.157 290.096 521.441C291.195 523.801 291.117 534.001 290.291 536.619C290.067 537.329 290.156 537.136 289.553 537.431C289.023 537.69 288.531 537.969 288.028 538.276C286.751 543.264 287.61 556.399 287.592 562.344L287.488 621.76Q297.33 624.806 306.982 628.411Q306.293 664.21 306.558 700.014L306.524 807.696L776.911 807.444C795.66 744.364 835.451 694.202 893.495 662.732C923.763 646.32 957.074 637.943 991.354 636.122L991.348 651.41C929.08 656.236 877.239 680.851 836.416 728.614Q827.978 738.342 820.976 749.15Q816.603 755.994 812.667 763.099Q808.732 770.204 805.25 777.542Q801.767 784.879 798.752 792.421Q795.736 799.962 793.199 807.678C795.667 807.711 798.153 807.807 800.619 807.729C807.932 799.793 816.624 794.338 827.025 791.34C820.702 784.042 816.584 775.557 817.22 765.682C817.585 760.005 819.463 754.98 822.052 749.975C826.432 743.348 832.118 738.197 839.692 735.545C848.797 732.356 857.742 733.172 866.375 737.257C865.577 735.396 864.868 733.458 864.354 731.498C862.034 722.657 863.004 712.95 867.66 705.021Q868.078 704.305 868.532 703.61Q868.985 702.916 869.472 702.244Q869.959 701.573 870.479 700.927Q870.999 700.281 871.551 699.661Q872.102 699.042 872.683 698.45Q873.265 697.858 873.875 697.297Q874.485 696.735 875.122 696.204Q875.759 695.673 876.422 695.174Q877.085 694.675 877.771 694.21Q878.458 693.745 879.167 693.314Q879.876 692.883 880.605 692.488Q881.334 692.093 882.083 691.735Q882.831 691.377 883.595 691.056Q884.36 690.735 885.14 690.453Q885.92 690.17 886.713 689.927Q887.506 689.684 888.31 689.48C899.631 686.577 909.845 690.393 919.572 696.072C920.513 687.161 923.162 679.667 929.525 673.135C935.734 666.761 944.805 663.178 953.687 663.184C962.473 663.191 971.237 666.553 977.413 672.861C981.519 677.054 984.57 682.421 985.627 688.221C986.611 693.621 986.142 699.59 986.136 705.076L986.109 732.802L986.422 822.468L33.7065 822.516Q38.2827 814.996 43.1815 807.682Q60.0967 808.044 77.0152 807.908C76.3791 765.196 76.9906 722.391 76.9847 679.668C76.9836 671.58 77.2644 663.39 76.9581 655.317C76.7152 648.916 75.6766 642.799 75.8103 636.334C88.2897 631.231 101.432 627.635 113.969 622.587L113.99 564.266C113.99 555.722 114.904 545.53 113.718 537.218C113.417 535.109 112.588 533.035 112.018 530.985C111.41 528.799 110.506 524.963 111.698 522.909C112.453 522.644 113.119 522.417 113.794 521.973C115 521.181 113.843 499.429 114.689 495.845C115.134 493.956 116.969 491.408 118.77 490.611C120.112 490.017 120.428 490.24 121.704 490.739C126.866 496.495 124.997 510.994 124.9 518.451C132.567 515.373 140.376 512.578 148.094 509.624L148.184 447.386C148.204 440.937 149.163 427.466 147.872 421.65C147.659 420.691 146.441 421.105 145.65 420.039C145.478 417.25 145.679 415.941 147.54 413.789C148.874 412.247 148.127 405.614 148.077 403.546L155.903 399.923C156.487 397.854 157.403 396.473 158.418 394.621C159.707 392.267 159.578 350.691 158.616 347.625L156.508 347.546C155.365 346.014 155.493 342.307 155.306 340.37C159.082 337.953 162.967 334.669 167.272 333.361L167.227 326.122C164.722 327.408 162.093 329.27 159.516 330.283C158.241 330.784 157.212 330.693 155.955 330.194L155.637 329.197C157.364 325.412 173.904 317.189 177.99 314.893C177.939 308.846 176.95 302.819 176.133 296.837C179.052 292.04 182.936 288.06 187.482 284.805L187.45 269.602L191.47 267.595C191.563 262.504 191.856 257.337 191.264 252.272C190.43 251.968 189.912 251.651 189.229 251.085C188.265 249.42 188.643 247.733 188.803 245.901C191.872 242.844 193.876 238.904 196.974 235.91Z"/>
	<path fill="#233340" d="M200.919 237.332C203.421 238.963 205.163 242.409 206.765 244.879C205.176 244.534 203.528 244.358 201.917 244.127C199.529 244.086 197.083 244.408 194.702 244.598C196.65 242.011 198.664 239.656 200.919 237.332Z"/>
	<path fill="#233340" d="M194.622 260.854C198.721 260.921 203.177 259.921 207.019 261.574C208.141 263.074 207.806 264.029 207.783 265.868C205.679 264.945 203.674 264.372 201.355 264.403C199.739 264.425 196.688 264.709 195.32 263.835C194.715 263.448 194.721 261.579 194.622 260.854Z"/>
	<path fill="#233340" d="M281.885 495.891C282.484 496.128 283.096 496.503 283.668 496.804C285.707 501.041 284.708 514.29 284.232 519.29C283.016 518.82 282.158 518.518 281.19 517.609C280.78 513.485 280.018 498.934 281.885 495.891Z"/>
	<path fill="#233340" d="M119.06 494.713C119.62 495.045 120.076 495.51 120.562 495.94C122.091 499.852 121.668 516.182 120.602 520.566C119.431 520.547 119.041 520.78 118.101 520.019C117.658 514.742 116.906 499.011 119.06 494.713Z"/>
	<path fill="#233340" d="M200.299 248.195C202.934 248.414 205.129 249.221 207.577 250.134C207.626 252.013 208.024 254.537 207.146 256.235C205.732 257.155 204.196 256.777 202.602 256.633L194.517 256.522C194.502 254.294 193.944 251.26 195.213 249.366C196.757 248.3 198.489 248.348 200.299 248.195Z"/>
	<path fill="#233340" d="M179.568 355.723C180.033 356.071 180.039 356.05 180.512 356.549C186.304 362.655 184.555 376.448 184.493 384.218L180.268 385.958C178.94 386.516 177.825 386.893 176.41 387.151C176.202 386.603 176.019 386.114 175.942 385.529C174.994 378.305 175.475 361.675 179.568 355.723Z"/>
	<path fill="#233340" d="M198.772 268.091C202.153 267.876 204.259 268.364 207.105 270.251C208.569 271.221 210.044 272.081 211.587 272.918L211.532 282.891C209.209 282.221 206.853 281.681 204.503 281.117C199.907 280.43 195.936 281.28 191.503 282.392L191.235 271.702C193.705 270.131 195.963 268.963 198.772 268.091Z"/>
	<path fill="#233340" d="M220.284 354.24C220.434 354.328 220.594 354.401 220.734 354.505C223.016 356.203 224.258 359.866 224.833 362.531C225.682 366.466 226.768 384.569 225 387.359L223.543 386.982L216.693 384.555C217.086 374.292 215.793 363.785 220.284 354.24Z"/>
	<path fill="#233340" d="M197.729 309.371L198.602 309.665C199.661 313.377 198.974 318.715 198.959 322.624C190.241 326.186 181.548 329.957 172.625 332.976C172.236 332.973 171.811 332.816 171.433 332.721C170.753 329.874 171.062 326.382 171.049 323.445C179.761 318.432 188.775 313.932 197.729 309.371Z"/>
	<path fill="#233340" d="M202.923 309.12Q217.568 316.003 232.092 323.136L231.976 333.864C222.211 330.213 212.281 326.36 202.794 322.044L202.923 309.12Z"/>
	<path fill="#233340" d="M203.384 384.909C215.821 390.843 239.178 396.764 248.151 406.112C248.777 407.747 248.422 409.724 248.298 411.451C243.132 410.5 209.162 396.323 203.399 393.121L203.384 384.909Z"/>
	<path fill="#233340" d="M197.01 385.012L197.546 385.374C198.308 387.524 197.879 390.506 197.829 392.787C183.7 400.369 168.101 406.688 153.235 412.714L152.785 412.749C151.811 411.067 152.317 407.545 152.337 405.579C156.676 404.139 159.753 403.417 162.134 399.167C163.266 397.148 192.354 386.855 197.01 385.012Z"/>
	<path fill="#233340" d="M204.102 494.147Q245.383 509.153 286.51 524.578L286.544 530.425C272.439 525.379 258.622 519.657 244.617 514.361C231.305 509.328 217.812 504.716 204.432 499.859C203.691 498.349 204.071 495.818 204.102 494.147Z"/>
	<path fill="#233340" d="M197.969 495.465L198.418 495.647C199.23 496.98 198.93 499.079 198.905 500.623Q158.537 516.867 117.596 531.61C116.465 530.136 116.582 527.91 116.354 526.07C129.236 521.986 141.821 516.828 154.455 512.048C168.966 506.559 183.613 501.345 197.969 495.465Z"/>
	<path fill="#233340" d="M204.382 598.617C236.777 610.837 270.004 621.457 302.997 631.968L303.004 638.88C298.639 637.789 294.302 635.828 290.059 634.309L264.91 625.411C245.055 618.375 224.268 612.119 204.949 603.77C204.088 602.303 204.361 600.285 204.382 598.617Z"/>
	<path fill="#233340" d="M199.369 598.542L199.993 598.717C200.794 600.047 200.493 602.421 200.491 603.981C160.505 616.523 121.256 631.288 81.3124 643.945C80.8642 643.815 81.186 643.938 80.5268 643.274C80.4817 642.037 80.2968 640.648 80.7166 639.466C80.988 638.702 81.8091 638.528 82.4981 638.22C86.6955 636.345 91.4307 635.128 95.8086 633.683L122.211 624.967L199.369 598.542Z"/>
	<path fill="#233340" d="M196.285 285.591C199.211 285.357 202.254 285.184 205.157 285.701C212.311 286.977 216.954 291.241 220.914 296.991C220.484 302.274 220.438 307.617 220.097 312.913C214.745 310.406 209.455 307.75 204.123 305.198C203.63 304.951 203.312 304.765 202.753 304.618C197.934 303.343 186.596 310.36 182.195 312.559C181.193 307.704 180.852 302.628 180.29 297.703C184.587 291.927 189.253 287.752 196.285 285.591Z"/>
	<path fill="#233340" d="M884.864 771.228C898.167 783.115 910.637 796.055 924.328 807.499L903.375 807.453C896.291 807.651 888.999 802.997 882.16 801.036C876.489 799.409 870.769 798.537 864.941 797.737Q867.011 796.722 868.97 795.508C878.212 789.753 882.504 781.604 884.864 771.228Z"/>
	<path fill="#233340" d="M951.09 679.08C954.65 678.862 957.682 679.054 960.973 680.557Q961.783 680.932 962.551 681.386Q963.319 681.839 964.038 682.368Q964.757 682.896 965.42 683.493Q966.083 684.09 966.683 684.75Q967.284 685.41 967.815 686.126Q968.347 686.843 968.804 687.609Q969.262 688.375 969.641 689.183Q970.019 689.99 970.316 690.832C971.921 695.377 971.515 700.246 969.295 704.516C966.51 709.873 962.188 712.392 956.643 714.091C952.423 714.548 948.361 713.859 944.652 711.729C940.427 709.303 937.1 705.186 935.929 700.425Q935.827 700.001 935.747 699.573Q935.667 699.144 935.609 698.712Q935.551 698.28 935.515 697.845Q935.479 697.411 935.465 696.975Q935.451 696.539 935.46 696.104Q935.469 695.668 935.5 695.233Q935.531 694.798 935.584 694.365Q935.637 693.932 935.713 693.503Q935.788 693.074 935.885 692.649Q935.982 692.224 936.101 691.804Q936.22 691.385 936.36 690.972Q936.5 690.559 936.661 690.154Q936.823 689.749 937.004 689.353Q937.186 688.956 937.388 688.57Q937.589 688.183 937.811 687.808Q938.032 687.432 938.272 687.068C941.336 682.392 945.806 680.222 951.09 679.08Z"/>
	<path fill="#233340" d="M225.396 447.062L226.112 447.042C229.735 446.972 231.989 447.549 234.587 450.217C237.125 452.823 238.582 456.441 239.274 459.965C240.47 466.057 239.901 472.788 239.87 478.996Q239.822 490.751 239.896 502.504L234.653 500.519L219.246 494.881C219.316 485.148 217.804 460.88 220.128 453.016C221.033 449.952 222.676 448.573 225.396 447.062Z"/>
	<path fill="#233340" d="M894.538 704.591Q895.311 704.517 896.087 704.512Q896.864 704.507 897.638 704.57Q898.412 704.633 899.177 704.764Q899.942 704.896 900.693 705.094Q901.444 705.292 902.174 705.556Q902.904 705.82 903.608 706.147Q904.312 706.475 904.985 706.863Q905.657 707.251 906.293 707.697Q906.678 707.975 907.048 708.271Q907.418 708.568 907.772 708.884Q908.126 709.199 908.464 709.533Q908.801 709.866 909.121 710.216Q909.441 710.567 909.742 710.933Q910.044 711.299 910.326 711.68Q910.608 712.061 910.871 712.457Q911.133 712.852 911.374 713.26Q911.616 713.668 911.836 714.088Q912.057 714.508 912.255 714.939Q912.454 715.37 912.63 715.811Q912.806 716.251 912.959 716.7Q913.112 717.149 913.242 717.605Q913.372 718.061 913.478 718.524Q913.584 718.986 913.667 719.453Q913.749 719.92 913.807 720.391Q913.918 721.279 913.942 722.174Q913.966 723.07 913.902 723.963Q913.838 724.856 913.687 725.738Q913.536 726.621 913.299 727.484Q913.062 728.348 912.741 729.184Q912.42 730.02 912.02 730.821Q911.619 731.621 911.141 732.379Q910.663 733.136 910.114 733.843C906.865 737.976 902.673 739.642 897.601 740.309C893.948 740.198 890.488 739.595 887.253 737.789C883.113 735.477 879.941 731.587 878.754 726.972C877.562 722.335 878.512 717.345 881.006 713.295C884.174 708.149 888.844 705.832 894.538 704.591Z"/>
	<path fill="#233340" d="M849.893 749.146C853.718 749.157 856.97 749.717 860.333 751.686C864.48 754.114 867.762 758.2 868.942 762.886C870.083 767.413 869.218 772.491 866.772 776.452C863.728 781.382 859.21 783.361 853.811 784.596C849.003 784.817 844.774 784.2 840.718 781.406C836.73 778.66 834 774.499 833.346 769.673Q833.226 768.768 833.196 767.857Q833.165 766.945 833.225 766.034Q833.284 765.124 833.433 764.224Q833.582 763.324 833.818 762.443Q834.055 761.561 834.377 760.708Q834.699 759.854 835.104 759.036Q835.508 758.219 835.991 757.445Q836.474 756.671 837.031 755.948C840.344 751.699 844.716 749.854 849.893 749.146Z"/>
	<path fill="#233340" d="M169.565 449.027C170.214 448.956 170.852 448.883 171.506 448.882C173.79 448.878 176.076 449.582 177.699 451.25C178.934 452.519 179.696 454.181 180.048 455.901C181.142 461.241 180.561 467.414 180.532 472.882L180.492 497.622C176.723 499.285 172.725 500.592 168.863 502.035L160.01 505.29C159.975 496.496 158.692 464.535 160.754 458.292C162.239 453.798 165.549 451.188 169.565 449.027Z"/>
	<path fill="#233340" d="M969.969 724.598C970.661 725.303 970.544 792.462 970.563 799.515L958.248 772.626C950.81 756.787 943.996 740.683 936.246 724.988C939.293 726.369 942.296 727.646 945.541 728.492C954.477 730.823 962.125 729.136 969.969 724.598Z"/>
	<path fill="#233340" d="M197.152 328.472C197.619 328.537 197.302 328.461 198.002 328.958L197.586 331.227C198.484 333.504 199.096 336.076 199.263 338.531C199.518 342.268 199.045 346.205 199.017 349.97L198.894 379.093C195.238 380.085 191.621 381.435 188.02 382.62C188.06 373.529 189.225 362.483 186.322 353.778C185.585 351.569 184.193 348.61 181.853 347.703C180.647 347.235 179.586 347.454 178.494 348.068C174.703 350.2 173.321 356.976 172.452 360.904C171.991 370.379 172.214 379.965 172.148 389.455L163.327 392.284C163.508 376.548 163.305 360.789 163.278 345.05Q179.855 336.024 197.152 328.472Z"/>
	<path fill="#233340" d="M204.926 328.791C216.436 333.554 227.884 338.441 239.472 343.016L239.659 393.658L229.212 389.123C229.37 380.292 229.812 371.263 229.038 362.46C228.694 358.162 227.961 353.563 226.026 349.672C225.107 347.825 224.041 345.945 221.982 345.288C220.716 345.458 220.05 345.8 219.141 346.66C211.001 354.361 213.135 373.077 213.069 383.496L203.321 379.512C203.374 373.334 202.356 336.408 203.412 333.331C204.227 333.145 204.925 332.935 205.687 332.59C206.072 331.124 205.485 330.114 204.926 328.791Z"/>
	<path fill="#233340" d="M156.091 540.051C156.53 540.027 156.969 540 157.409 539.995C160.379 539.96 162.807 540.428 164.935 542.642C166.867 544.652 167.512 547.541 167.921 550.216C168.915 556.709 168.448 563.665 168.452 570.229L168.439 604.162C163.856 605.818 159.229 607.373 154.627 608.976L145.497 612.153C145.492 602.032 144.311 557.58 146.355 550.947C147.984 545.664 151.306 542.503 156.091 540.051Z"/>
	<path fill="#233340" d="M242.909 539.614C243.693 539.509 244.469 539.404 245.258 539.353C248.33 539.157 251.244 539.945 253.544 542.071C255.797 544.155 256.977 547.153 257.543 550.107C258.911 557.258 258.156 565.481 258.154 572.782L258.225 612.413C256.219 611.541 254.11 610.863 252.05 610.126Q243.574 607.025 234.996 604.22L234.955 571.6C234.949 564.046 233.923 554.754 235.899 547.499C236.96 543.6 239.57 541.612 242.909 539.614Z"/>
	<path fill="#233340" d="M925.245 738.87C928.551 743.101 932.394 753.866 934.821 759.116C942.273 775.238 949.931 791.218 957.079 807.483Q951.63 807.526 946.184 807.733Q940.284 802.076 934.456 796.345Q913.309 775.585 891.62 755.393C895.685 755.807 899.413 755.971 903.443 755.102C913.222 752.992 919.928 747.047 925.245 738.87Z"/>
	<path fill="#233340" d="M202.753 398.782C218.137 403.522 233.296 410.203 248.141 416.427C247.346 446.166 248.025 476.094 248.016 505.854L243.45 503.84Q243.673 479.134 243.474 454.427C242.507 450.419 241.32 446.783 238.389 443.717C235.678 440.881 231.277 438.438 227.265 438.5C224.827 438.538 222.783 439.604 221.114 441.347C218.738 443.828 217.204 447.228 216.457 450.549C214.534 459.094 215.606 483.233 215.608 493.566C211.415 492.004 207.071 490.327 202.612 489.779C202.649 459.808 201.519 428.618 202.753 398.782Z"/>
	<path fill="#233340" d="M197.113 398.985C197.645 399.104 197.914 399.451 198.316 399.803C199.823 405.667 198.916 420.918 198.91 427.695L198.892 490.648L184.416 496.496C184.482 486.787 186.107 455.5 182.988 448.087C181.696 445.016 179.572 442.383 176.343 441.268C172.778 440.035 168.631 440.799 165.387 442.575C160.249 445.388 158.081 449.536 156.583 454.925C155.942 472.019 156.472 489.287 156.51 506.401L152.024 508.215L152.027 417.803C166.878 411.41 181.855 404.295 197.113 398.985Z"/>
	<path fill="#233340" d="M140.356 750.17C143.729 749.764 147.375 749.92 150.734 750.394C162.408 752.04 174.282 757.483 181.469 767.046C181.717 780.666 181.532 794.324 181.557 807.948L141.241 807.973L98.4289 807.962C98.5196 799.495 97.2369 784.15 98.948 776.59C99.5134 774.093 100.799 771.901 102.335 769.882C111.298 758.1 126.106 752.094 140.356 750.17Z"/>
	<path fill="#233340" d="M204.109 504.975C230.438 515.505 257.294 524.693 283.656 535.198C284.08 563.697 283.694 592.25 283.674 620.755C276.497 618.238 269.214 615.979 261.984 613.619L262.004 573.25C261.986 563.335 264.341 548.247 257.535 540.403C254.743 537.185 250.664 534.882 246.35 534.73C242.556 534.597 238.853 535.774 236.14 538.492C233.783 540.854 232.532 544 231.967 547.242C230.769 554.115 231.523 561.932 231.554 568.933L231.5 603.314Q217.748 598.545 204.053 593.616L204.109 504.975Z"/>
	<path fill="#233340" d="M199.278 505.96L200.159 506.315C201.429 510.442 200.528 524.618 200.534 529.647L200.498 593.593C190.885 596.441 181.717 600.604 171.993 603.165L171.871 569.926C171.905 562.926 172.6 555.142 171.442 548.238C170.902 545.015 169.899 541.803 167.676 539.325C165.35 536.731 162.155 535.531 158.715 535.441C154.734 535.336 150.995 536.669 148.188 539.532C139.705 548.185 141.92 564.528 141.979 575.75L142 613.527Q130.058 617.824 117.919 621.53L117.881 536.402C128.394 533.394 138.891 529.098 149.135 525.268Q174.354 515.997 199.278 505.96Z"/>
	<path fill="#233340" d="M199.86 609.055L200.204 609.307C201.593 612.67 200.522 785.652 200.425 807.836L185.504 807.925L185.428 766.315Q184.269 764.363 182.848 762.594Q181.427 760.824 179.771 759.272C170.408 750.426 155.935 745.583 143.154 746.094Q141.67 746.142 140.19 746.263Q138.71 746.385 137.238 746.579Q135.766 746.774 134.305 747.042Q132.845 747.31 131.399 747.65Q129.954 747.99 128.527 748.401Q127.1 748.812 125.696 749.294Q124.291 749.776 122.912 750.327Q121.533 750.878 120.184 751.497Q118.834 752.116 117.516 752.801Q116.199 753.486 114.917 754.236Q113.635 754.985 112.393 755.798Q111.15 756.61 109.949 757.483Q108.748 758.357 107.592 759.289Q106.435 760.22 105.327 761.208Q104.219 762.197 103.161 763.239Q102.103 764.281 101.098 765.374C99.1708 767.575 97.185 769.846 96.1375 772.619C93.3066 780.113 94.7274 799.252 94.7838 807.887L80.5805 807.941Q81.051 767.904 80.7267 727.865L80.9875 649.186C98.1237 644.834 114.841 638.081 131.556 632.327C154.316 624.492 177.194 617.208 199.86 609.055Z"/>
	<path fill="#FE8F3B" d="M140.507 709.679C141.873 711.484 141.066 731.597 141.053 735.335C134.899 735.974 128.713 737.297 122.597 738.271C121.025 736.064 121.965 717.446 121.994 713.483C128.062 711.936 134.363 710.914 140.507 709.679Z"/>
	<path fill="#233340" d="M133.925 716.207C134.977 717.682 134.424 728.282 134.424 730.697L127.104 732.274C125.377 730.105 126.373 720.232 126.383 717.156C128.91 717.054 131.425 716.582 133.925 716.207Z"/>
	<path fill="#FE8F3B" d="M122.329 650.545L123.42 650.671C125.144 653.023 124.18 688.143 124.147 694.092L103.287 699.918C102.59 699.964 101.978 699.876 101.287 699.791C99.928 695.209 100.957 663.928 100.994 656.67Q111.612 653.434 122.329 650.545Z"/>
	<path fill="#233340" d="M108.409 685.325L109.921 685.55C110.011 685.683 110.117 685.806 110.191 685.948C111.168 687.798 111.065 690.758 110.418 692.698C109.873 694.332 109.157 694.369 107.727 695.074C107.128 695.014 106.507 694.86 105.915 694.748C104.827 692.761 104.828 689.889 105.562 687.777C106.186 685.983 106.797 686.044 108.409 685.325Z"/>
	<path fill="#233340" d="M119.144 682.647L119.55 683.054C120.036 686.121 120.23 688.392 118.931 691.289C117.879 692.499 116.493 692.573 115.001 692.868C113.877 691.493 114.473 686.263 114.492 684.421C116.072 683.912 117.604 683.263 119.144 682.647Z"/>
	<path fill="#FE8F3B" d="M168.851 638.041L170.018 638.068C171.453 640.679 170.589 678.018 170.529 684.727Q159.705 688.075 148.616 690.397L147.367 690.363C145.799 687.497 146.82 650.432 146.846 643.865Q157.871 641.038 168.851 638.041Z"/>
	<path fill="#233340" d="M165.678 674.085L166.232 674.347C166.859 676.508 167.14 679.372 165.911 681.375C165.039 682.795 163.246 682.977 161.734 683.356L161.231 683.298C160.229 681.463 160.841 677.503 160.887 675.373L165.678 674.085Z"/>
	<path fill="#233340" d="M156.493 676.643C157.367 678.282 156.96 682.643 156.988 684.632L151.517 685.853C150.458 684.484 151.034 680.057 151.07 678.299L156.493 676.643Z"/>
	<path fill="#233340" d="M204.317 608.747C218.92 615.316 234.81 620.324 249.887 625.761C267.404 632.077 285.018 639.005 302.825 644.43C303.226 666.464 302.848 688.575 302.846 710.616L302.768 807.929L204.112 807.982L204.317 608.747Z"/>
	<path fill="#FE8F3B" d="M254.492 769.863C259.005 771.267 263.85 772.259 268.533 772.856L268.426 801.446L254.45 800.964L254.492 769.863Z"/>
	<path fill="#FE8F3B" d="M254.51 706.676L268.631 710.292Q268.773 725.462 268.561 740.632C263.851 739.593 259.177 738.354 254.489 737.221L254.51 706.676Z"/>
	<path fill="#FE8F3B" d="M254.549 642.241Q261.651 644.679 268.817 646.92Q268.941 662.344 268.609 677.764C264.518 677.786 258.585 675.408 254.515 674.359L254.549 642.241Z"/>
</svg>
